<svg xmlns="http://www.w3.org/2000/svg" style="border:0 solid #000" width="745" height="400">
    <style></style>
    <defs>
        <marker id="TriangleOutM" orient="auto" overflow="visible">
            <path d="M5.77 0l-8.65 5V-5l8.65 5z" transform="scale(.4)" />
        </marker>
        <marker id="TriangleOutS-RequestVote" orient="auto" overflow="visible">
            <path d="M1.731 0L-.864 1.5v-3L1.731 0z" class="RequestVote" fill="#66c2a5" stroke="#66c2a5" stroke-width=".8999999999999999" />
        </marker>
        <marker id="TriangleOutS-AppendEntries" orient="auto" overflow="visible">
            <path d="M1.731 0L-.864 1.5v-3L1.731 0z" class="AppendEntries" fill="#fc8d62" stroke="#fc8d62" stroke-width=".8999999999999999" />
        </marker>
    </defs>
    <circle cx="210" cy="210" r="150" fill="#eee" />
    <g class="resumed" fill="none">
        <path d="M156.429 145.714h42.857v128.572h-42.857zM220.714 145.714h42.857v128.572h-42.857z" />
    </g>
    <g id="messages">
        <a id="message-0" class="message reply AppendEntries" fill="#fc8d62" stroke="#fc8d62" stroke-width="3">
            <circle cx="306.64714644013657" cy="130.21826209912115" r="8"></circle>
            <path class="message-direction" style="marker-end:url(#TriangleOutS-AppendEntries)" d="M 300.17501048513697 , 125.51598008078136 L 293.70287453013736 , 120.81369806244157"></path>
            <path class="message-success" d="M 298.64714644013657 , 130.21826209912115 L 314.64714644013657 , 130.21826209912115 M 306.64714644013657 , 122.21826209912115 L 306.64714644013657 , 138.21826209912115"></path>
        </a>
        <a id="message-1" class="message reply AppendEntries" fill="#fc8d62" stroke="#fc8d62" stroke-width="3">
            <circle cx="116.86965668879787" cy="127.66315506332796" r="8"></circle>
            <path class="message-direction" style="marker-end:url(#TriangleOutS-AppendEntries)" d="M 123.34179264379746 , 122.96087304498818 L 129.81392859879702 , 118.25859102664839"></path>
            <path class="message-success" d="M 108.86965668879787 , 127.66315506332796 L 124.86965668879787 , 127.66315506332796 M 116.86965668879787 , 119.66315506332796 L 116.86965668879787 , 135.66315506332796"></path>
        </a>
        <a id="message-2" class="message reply AppendEntries" fill="#fc8d62" stroke="#fc8d62" stroke-width="3">
            <circle cx="273.16504797439154" cy="254.4020282756697" r="8"></circle>
            <path class="message-direction" style="marker-end:url(#TriangleOutS-AppendEntries)" d="M 270.692912019392 , 246.79357614530846 L 268.2207760643924 , 239.18512401494723"></path>
            <path class="message-success" d="M 265.16504797439154 , 254.4020282756697 L 281.16504797439154 , 254.4020282756697 M 273.16504797439154 , 246.4020282756697 L 273.16504797439154 , 262.4020282756697"></path>
        </a>
        <a id="message-3" class="message reply AppendEntries" fill="#fc8d62" stroke="#fc8d62" stroke-width="3">
            <circle cx="140.1571981984286" cy="274.9540412948905" r="8"></circle>
            <path class="message-direction" style="marker-end:url(#TriangleOutS-AppendEntries)" d="M 142.62933415342818 , 267.34558916452926 L 145.10147010842775 , 259.73713703416803"></path>
            <path class="message-success" d="M 132.1571981984286 , 274.9540412948905 L 148.1571981984286 , 274.9540412948905 M 140.1571981984286 , 266.9540412948905 L 140.1571981984286 , 282.9540412948905"></path>
        </a>
    </g>
    <g id="servers">
        <g id="server-1" class="leader">
            <text class="serverid" x="210" y="10" style="text-align:center" fill="red" text-anchor="middle" dominant-baseline="central">S1</text>
            <a font-size="inherit">
                <circle class="background" cx="210" cy="60" r="30" fill="#e78ac3" />
                <path d="M210 27.5a32.5 32.5 0 0 1 0 65m0 0a32.5 32.5 0 0 1 0-65" stroke-width="5" fill="none" stroke="#000" />
                <text class="term" x="210" y="60" style="text-align:center" text-anchor="middle" dominant-baseline="central">3</text>
            </a>
        </g>
        <g id="server-2" class="follower">
            <text class="serverid" x="400.211" y="148.197" style="text-align:center" text-anchor="middle" dominant-baseline="central">S2</text>
            <a font-size="inherit">
                <circle class="background" cx="352.658" cy="163.647" r="30" fill="#e78ac3" />
                <path d="M352.658 131.147a32.5 32.5 0 0 1 0 65m0 0a32.5 32.5 0 0 1-31.906-26.316" stroke-width="5" stroke="#666" fill="none" />
                <text class="term" x="352.658" y="163.647" style="text-align:center" text-anchor="middle" dominant-baseline="central">3</text>
            </a>
        </g>
        <g id="server-3" class="follower">
            <text class="serverid" x="327.557" y="371.803" style="text-align:center" text-anchor="middle" dominant-baseline="central">S3</text>
            <a font-size="inherit">
                <circle class="background" cx="298.168" cy="331.353" r="30" fill="#e78ac3" />
                <path d="M298.168 298.853a32.5 32.5 0 0 1 0 65m0 0a32.5 32.5 0 0 1-22.806-55.655" stroke-width="5" stroke="#666" fill="none" />
                <text class="term" x="298.168" y="331.353" style="text-align:center" text-anchor="middle" dominant-baseline="central">3</text>
            </a>
        </g>
        <g id="server-4" class="follower">
            <text class="serverid" x="92.443" y="371.803" style="text-align:center" text-anchor="middle" dominant-baseline="central">S4</text>
            <a font-size="inherit">
                <circle class="background" cx="121.832" cy="331.353" r="30" fill="#e78ac3" />
                <path d="M121.832 298.853a32.5 32.5 0 0 1 0 65m0 0a32.5 32.5 0 0 1-32.499-32.73" stroke-width="5" stroke="#666" fill="none" />
                <text class="term" x="121.832" y="331.353" style="text-align:center" text-anchor="middle" dominant-baseline="central">3</text>
            </a>
        </g>
        <g id="server-5" class="follower">
            <text class="serverid" x="19.789" y="148.197" style="text-align:center" text-anchor="middle" dominant-baseline="central">S5</text>
            <a font-size="inherit">
                <circle class="background" cx="67.342" cy="163.647" r="30" fill="#e78ac3" />
                <path d="M67.342 131.147a32.5 32.5 0 0 1 0 65m0 0a32.5 32.5 0 0 1-20.674-57.576" stroke-width="5" stroke="#666" fill="none" />
                <text class="term" x="67.342" y="163.647" style="text-align:center" text-anchor="middle" dominant-baseline="central">3</text>
            </a>
        </g>
    </g>
    <g class="logs">
        <path fill="#eee" d="M430 50h320v270H430z" />
        <g id="log-indexes" text-anchor="middle">
            <text x="484.091" y="66.333" style="text-align:center" dominant-baseline="central">1</text>
            <text x="510.273" y="66.333" style="text-align:center" dominant-baseline="central">2</text>
            <text x="536.455" y="66.333" style="text-align:center" dominant-baseline="central">3</text>
            <text x="562.636" y="66.333" style="text-align:center" dominant-baseline="central">4</text>
            <text x="588.818" y="66.333" style="text-align:center" dominant-baseline="central">5</text>
            <text x="615" y="66.333" style="text-align:center" dominant-baseline="central">6</text>
            <text x="641.182" y="66.333" style="text-align:center" dominant-baseline="central">7</text>
            <text x="667.364" y="66.333" style="text-align:center" dominant-baseline="central">8</text>
            <text x="693.545" y="66.333" style="text-align:center" dominant-baseline="central">9</text>
            <text x="719.727" y="66.333" style="text-align:center" dominant-baseline="central">10</text>
        </g>
        <g id="log-S1">
            <text class="serverid leader" x="451" y="99.5" style="text-align:center" fill="red" text-anchor="middle" dominant-baseline="central">S1</text>
            <path fill="none" stroke="gray" d="M471 83.167h26.182v32.667H471zM497.182 83.167h26.182v32.667h-26.182zM523.364 83.167h26.182v32.667h-26.182z" />
            <path fill="none" stroke="gray" d="M549.545 83.167h26.182v32.667h-26.182zM575.727 83.167h26.182v32.667h-26.182zM601.909 83.167h26.182v32.667h-26.182zM628.091 83.167h26.182v32.667h-26.182zM654.273 83.167h26.182v32.667h-26.182zM680.455 83.167h26.182v32.667h-26.182z" />
            <path fill="none" stroke="gray" d="M706.636 83.167h26.182v32.667h-26.182z" />
            <g class="entry committed">
                <path stroke-dasharray="1 0" fill="#e78ac3" stroke="#000" stroke-width="3" d="M471 83.167h26.182v32.667H471z" />
                <text x="484.091" y="99.5" style="text-align:center" text-anchor="middle" dominant-baseline="central">3</text>
            </g>
        </g>
        <g id="log-S2">
            <text class="serverid follower" x="451" y="148.5" style="text-align:center" text-anchor="middle" dominant-baseline="central">S2</text>
            <path fill="none" stroke="gray" d="M471 132.167h26.182v32.667H471zM497.182 132.167h26.182v32.667h-26.182zM523.364 132.167h26.182v32.667h-26.182z" />
            <path fill="none" stroke="gray" d="M549.545 132.167h26.182v32.667h-26.182zM575.727 132.167h26.182v32.667h-26.182zM601.909 132.167h26.182v32.667h-26.182zM628.091 132.167h26.182v32.667h-26.182zM654.273 132.167h26.182v32.667h-26.182zM680.455 132.167h26.182v32.667h-26.182z" />
            <path fill="none" stroke="gray" d="M706.636 132.167h26.182v32.667h-26.182z" />
            <g class="entry committed">
                <path stroke-dasharray="1 0" fill="#e78ac3" stroke="#000" stroke-width="3" d="M471 132.167h26.182v32.667H471z" />
                <text x="484.091" y="148.5" style="text-align:center" text-anchor="middle" dominant-baseline="central">3</text>
            </g>
            <circle cx="497.182" cy="164.833" r="5" />
            <path d="M510.273 175.722v-5.444" stroke-width="3" marker-end="url(#TriangleOutM)" stroke="#000" />
        </g>
        <g id="log-S3">
            <text class="serverid follower" x="451" y="197.5" style="text-align:center" text-anchor="middle" dominant-baseline="central">S3</text>
            <path fill="none" stroke="gray" d="M471 181.167h26.182v32.667H471zM497.182 181.167h26.182v32.667h-26.182zM523.364 181.167h26.182v32.667h-26.182z" />
            <path fill="none" stroke="gray" d="M549.545 181.167h26.182v32.667h-26.182zM575.727 181.167h26.182v32.667h-26.182zM601.909 181.167h26.182v32.667h-26.182zM628.091 181.167h26.182v32.667h-26.182zM654.273 181.167h26.182v32.667h-26.182zM680.455 181.167h26.182v32.667h-26.182z" />
            <path fill="none" stroke="gray" d="M706.636 181.167h26.182v32.667h-26.182z" />
            <g class="entry committed">
                <path stroke-dasharray="1 0" fill="#e78ac3" stroke="#000" stroke-width="3" d="M471 181.167h26.182v32.667H471z" />
                <text x="484.091" y="197.5" style="text-align:center" text-anchor="middle" dominant-baseline="central">3</text>
            </g>
            <circle cx="497.182" cy="213.833" r="5" />
            <path d="M510.273 224.722v-5.444" stroke-width="3" marker-end="url(#TriangleOutM)" stroke="#000" />
        </g>
        <g id="log-S4">
            <text class="serverid follower" x="451" y="246.5" style="text-align:center" text-anchor="middle" dominant-baseline="central">S4</text>
            <path fill="none" stroke="gray" d="M471 230.167h26.182v32.667H471zM497.182 230.167h26.182v32.667h-26.182zM523.364 230.167h26.182v32.667h-26.182z" />
            <path fill="none" stroke="gray" d="M549.545 230.167h26.182v32.667h-26.182zM575.727 230.167h26.182v32.667h-26.182zM601.909 230.167h26.182v32.667h-26.182zM628.091 230.167h26.182v32.667h-26.182zM654.273 230.167h26.182v32.667h-26.182zM680.455 230.167h26.182v32.667h-26.182z" />
            <path fill="none" stroke="gray" d="M706.636 230.167h26.182v32.667h-26.182z" />
            <g class="entry committed">
                <path stroke-dasharray="1 0" fill="#e78ac3" stroke="#000" stroke-width="3" d="M471 230.167h26.182v32.667H471z" />
                <text x="484.091" y="246.5" style="text-align:center" text-anchor="middle" dominant-baseline="central">3</text>
            </g>
            <circle cx="497.182" cy="262.833" r="5" />
            <path d="M510.273 273.722v-5.444" stroke-width="3" marker-end="url(#TriangleOutM)" stroke="#000" />
        </g>
        <g id="log-S5">
            <text class="serverid follower" x="451" y="295.5" style="text-align:center" text-anchor="middle" dominant-baseline="central">S5</text>
            <path fill="none" stroke="gray" d="M471 279.167h26.182v32.667H471zM497.182 279.167h26.182v32.667h-26.182zM523.364 279.167h26.182v32.667h-26.182z" />
            <path fill="none" stroke="gray" d="M549.545 279.167h26.182v32.667h-26.182zM575.727 279.167h26.182v32.667h-26.182zM601.909 279.167h26.182v32.667h-26.182zM628.091 279.167h26.182v32.667h-26.182zM654.273 279.167h26.182v32.667h-26.182zM680.455 279.167h26.182v32.667h-26.182z" />
            <path fill="none" stroke="gray" d="M706.636 279.167h26.182v32.667h-26.182z" />
            <g class="entry committed">
                <path stroke-dasharray="1 0" fill="#e78ac3" stroke="#000" stroke-width="3" d="M471 279.167h26.182v32.667H471z" />
                <text x="484.091" y="295.5" style="text-align:center" text-anchor="middle" dominant-baseline="central">3</text>
            </g>
            <circle cx="497.182" cy="311.833" r="5" />
            <path d="M510.273 322.722v-5.444" stroke-width="3" marker-end="url(#TriangleOutM)" stroke="#000" />
        </g>
    </g>
</svg>
